<svg xmlns="http://www.w3.org/2000/svg" xmlns:xlink="http://www.w3.org/1999/xlink" xml:space="preserve" id="marketer" x="0" y="0" style="enable-background:new 0 0 705 787" version="1.1" viewBox="0 0 705 787">
  <path d="M102.4 557.4c37.4 21.9 69.7 56.4 104 128.3 0 0 77.3 130.4 279.3 22.5 66.8-35.7 130.3-89.1 179.8-150.8H102.4z" style="fill:#cce9ff"></path>
  <path d="M194.1 510.7s41.7 64.5 5.7 98.3c-36 33.7-39.8-4.3-39.8-4.3s-19.1 1.1 19.2-42c18.1-20.3 14.9-52 14.9-52z" style="fill:#0e538c"></path>
  <path d="M106.2 397.2s-42.5 50 14.3 119.1c56.8 69.2 48 105.8 48 105.8s79.2-120.3-62.3-224.9z" style="fill:#2a94f4"></path>
  <path d="M160.1 618.9c26.4 5.3 5-71.6-34.6-95-39.7-23.4-75.1-25.7-97.4-48.3.1 0 1.8 117 132 143.3z" style="fill:#ffbe55"></path>
  <path d="M597.3 510.9H289.8c-3.5 0-6.4-2.9-6.4-6.4V50.6c0-3.5 2.9-6.4 6.4-6.4h307.5c3.5 0 6.4 2.9 6.4 6.4v453.9c0 3.6-2.9 6.4-6.4 6.4z" style="fill:#0e538c"></path>
  <path d="M597.3 510.9H289.8L603.7 50.6v453.9c0 3.6-2.9 6.4-6.4 6.4z" style="fill:#0e538c"></path>
  <path d="M553 346.4h16.6v126.3H553z" style="fill:#cce9ff"></path>
  <path d="M520.3 360.5h16.6v112.1h-16.6z" style="fill:#ffbe55"></path>
  <path d="M484.6 378.9h16.6v93.7h-16.6z" style="fill:#cce9ff"></path>
  <path d="M448.1 402.1h16.6v70.5h-16.6zM373 411.2l-3.6-1.3 31.3-87.8 67.9-17.9 24.4-96.4 52.3-23.1 11.8-74.9 3.7.6-12 77-52.6 23.2-24.5 96.7-68 18z" style="fill:#ffbe55"></path>
  <path d="M478.1 299.3c3.6 4.4 2.9 10.8-1.4 14.3-4.4 3.6-10.8 2.9-14.3-1.4-3.6-4.3-2.9-10.8 1.4-14.3 4.3-3.6 10.7-3 14.3 1.4z" style="fill:#fff"></path>
  <path d="M477.8 315.1c-5.2 4.2-12.8 3.5-17-1.7-4.2-5.2-3.5-12.8 1.7-17 5.2-4.2 12.8-3.5 17 1.7 4.3 5.1 3.5 12.8-1.7 17zm-12.9-15.8c-3.5 2.9-4.1 8.1-1.2 11.6 2.9 3.5 8.1 4.1 11.6 1.2 3.5-2.9 4.1-8.1 1.2-11.6-2.8-3.5-8-4.1-11.6-1.2z" style="fill:#ffbe55"></path>
  <path d="M502.8 203.3c3.6 4.4 2.9 10.8-1.4 14.3-4.4 3.6-10.8 2.9-14.3-1.4-3.6-4.4-2.9-10.8 1.4-14.3 4.3-3.6 10.7-2.9 14.3 1.4z" style="fill:#fff"></path>
  <path d="M502.5 219.1c-5.2 4.2-12.8 3.5-17-1.7-4.2-5.2-3.5-12.8 1.7-17 5.2-4.2 12.8-3.5 17 1.7 4.3 5.2 3.5 12.8-1.7 17zm-12.9-15.7c-3.5 2.9-4.1 8.1-1.2 11.6 2.9 3.5 8.1 4.1 11.6 1.2 3.5-2.9 4.1-8.1 1.2-11.6-2.8-3.6-8-4.1-11.6-1.2z" style="fill:#ffbe55"></path>
  <path d="M554.3 179.6c3.6 4.4 2.9 10.8-1.4 14.3-4.4 3.6-10.8 2.9-14.3-1.4-3.6-4.4-2.9-10.8 1.4-14.3 4.3-3.6 10.8-3 14.3 1.4z" style="fill:#fff"></path>
  <path d="M554.1 195.4c-5.2 4.2-12.8 3.5-17-1.7-4.2-5.2-3.5-12.8 1.7-17 5.2-4.2 12.8-3.5 17 1.7 4.2 5.1 3.5 12.8-1.7 17zm-12.9-15.8c-3.5 2.9-4.1 8.1-1.2 11.6 2.9 3.5 8.1 4.1 11.6 1.2 3.5-2.9 4.1-8.1 1.2-11.6-2.8-3.6-8.1-4.1-11.6-1.2z" style="fill:#ffbe55"></path>
  <path d="M410.5 318.1c3.6 4.4 2.9 10.8-1.4 14.3-4.4 3.6-10.8 2.9-14.3-1.4s-2.9-10.8 1.4-14.3c4.3-3.6 10.7-2.9 14.3 1.4z" style="fill:#fff"></path>
  <path d="M410.2 333.9c-5.2 4.2-12.8 3.5-17-1.7-4.2-5.2-3.5-12.8 1.7-17 5.2-4.2 12.8-3.5 17 1.7 4.3 5.2 3.5 12.8-1.7 17zm-12.9-15.7c-3.5 2.9-4.1 8.1-1.2 11.6 2.9 3.5 8.1 4.1 11.6 1.2 3.5-2.9 4.1-8.1 1.2-11.6-2.8-3.6-8-4.1-11.6-1.2z" style="fill:#ffbe55"></path>
  <path d="M418 198.6h-99.2c-.8 0-1.4-.6-1.4-1.4v-18.4c0-.8.6-1.4 1.4-1.4H418c.8 0 1.4.6 1.4 1.4v18.4c0 .7-.6 1.4-1.4 1.4z" style="fill:#cce9ff"></path>
  <path d="M418 161.6h-99.2c-.8 0-1.4-.6-1.4-1.4v-18.4c0-.8.6-1.4 1.4-1.4H418c.8 0 1.4.6 1.4 1.4v18.4c0 .8-.6 1.4-1.4 1.4z" style="fill:#2a94f4"></path>
  <path d="M299 214.7s-3 29.2 2.4 36.5c0 0-14.3-3.1-17.6-8-3.2-5 15.2-28.5 15.2-28.5z" style="fill:#ffbe55"></path>
  <path d="M388.1 307.8s5.2-3.5 6-4c.8-.5 3.5-.4 6.5-.1 3 .4 7 2.2 7.2 2.7.2.5.7.8.5 2.2-.2 1.3-1.1 2.4-1.1 2.4s.5 1.8-.7 2.9c0 0 .4 1.7-1.2 2.8 0 0 .4 1.7-.8 2.4 0 0-2.7-.1-3.7.2-1 .3-6.5-.3-11.7-1.6 0-.1-5.8-1.3-1-9.9z" style="fill:#ffe3ca"></path>
  <path d="M385 308.3s3.3-.4 5.3-1.3-.4 10.1-.4 10.1-4.9-3.4-8.1-3.5c-3.1 0 3.2-5.3 3.2-5.3z" style="fill:#ffe3ca"></path>
  <path d="M250.2 602.9s10.2 14.9 13.7 18c0 0 7.1 3.7 7.3 6.6.4 5.6.7 8.8-8.6 9.1-9.3.3-15.2 0-16.9-5.7-1.7-5.7-4.7-10.1-4.7-10.1l-.7 14.7h-2.1s-.9-14.8-1.1-16.9c-.1-2.1-1.5-10.2 2.9-13.8 4.5-3.4 10.2-1.9 10.2-1.9z" style="fill:#0b4870"></path>
  <path d="M265.2 621.7s-5 1.4-11.1-.1c-6-1.5-11.8-15.9-13.5-17.1l-1.6-5.8h11.7s.1 4.3 2 8c2 3.6 12.5 15 12.5 15z" style="fill:#ffe3ca"></path>
  <path d="M316.2 597.3s1.5 3.6 4.4 7.4c2.1 2.8 8.7 14.1 11.6 14.9 2.9.8 11.8 2.4 12.6 7.4.8 5 1.2 8.5-7.6 8.9-8.8.4-14.6.9-18.8-5.3-4.2-6.2-10.9-10.7-10.9-10.7V636H304s-1.6-16.8-2.5-18c-.9-1.2-3.3-14.1 4.9-20.8 8.2-6.6 9.8.1 9.8.1z" style="fill:#0b4870"></path>
  <path d="M332.2 619.6s-7.9 2-10.9 0-13.3-19.4-16.7-20.4c0 0 3.3-6.7 11.6-1.8 0-.1 13.7 19.3 16 22.2z" style="fill:#ffe3ca"></path>
  <path d="M245.7 355.8s-11.1 14.5-14.1 31.6c-3 17.2 1.8 74.8 1.7 83.2-.1 8.5-7.5 34.9-5.9 50.9 1.6 16 9.8 82.7 9.8 82.7l19.3-.4s-3.9-72-2.9-78.7c1-6.7 4.1-35.2 4.5-38 .4-2.8 22-75.8 22-88.2s-7.6-63.3-34.4-43.1z" style="fill:#ffbe55"></path>
  <path d="M301.6 361.5s18.3 69.8 20.4 79.4c2.2 9.7 6.5 22.3 6.3 24.1-.2 1.8-2.3 31.6-2.3 31.6L320.8 598h-19.3s-6.2-64.5-7.2-77.5 7.1-33.1 5.1-38.7c-2-5.5-31.8-69.2-31.8-69.2s-22.4-71.4 34-51.1z" style="fill:#ffbe55"></path>
  <path d="M295.9 257s7.3.7 12.8 6.6c5.5 5.9 10.7 15.4 12.2 18.5 1.4 3.2 21.7 32.4 22.8 33.1 1.1.7 9.9-1.7 17-2.3 11.6-1 28.9-6.9 28.9-6.9l2.6 13.1s-42.6 13.8-52.5 11.3c-12-3-39.7-38.5-39.7-38.5s-20.7-24.1-4.1-34.9z" style="fill:#2a94f4"></path>
  <path d="M283.2 251.9s9.5 4.5 12.8 5.1c3.3.7 16 17.2 18.3 23.3 2.2 6 0 15.1-4.6 25.8-4.6 10.7-.3 14.2-2.4 24.9-2.1 10.6-2.1 39.7-1.7 45.6.4 5.9-60.9 17.1-73.1 6.3 0 0 8.3-27.3 18.1-37.5 2.1-2.2 1.9-17 .4-20.7-1.4-3.7-17.8-31.2-17.8-31.2s-1.2-27.9 5.9-33.4c6.2-4.8 23-6.5 26.1-7.6 3-1 11.8-1.5 18-.6z" style="fill:#2a94f4"></path>
  <path d="m286.2 273 5.8-6.7-5-17.7c-.1-.1-1.7 9.8-.8 24.4z" style="fill:#0e538c"></path>
  <path d="M250.1 257s-11.9-3.4-18.8 9.7c-6.8 13.2-5.1 20.2-6.7 26.2-1.6 5.9-7.9 45.5-8.3 47.2-.4 1.7-6.4 21.8-5.7 28 .8 6.2 6.4 53 6.2 54.6-.3 1.6 10.9-1.5 10.9-1.5s-.5-47.8-.1-51.8c.4-3.9.8-24.7 3.7-30 3-5.3 10.3-37.9 11.8-41.2 1.8-3.3 17.1-36.9 7-41.2z" style="fill:#eea886"></path>
  <path d="M287.7 241s-1.9 17.4-1.5 23c0 0-9.8 9.9-21-11.5 0 0 4.7-8.8 1.2-20.8-3.6-12 21.3 9.3 21.3 9.3z" style="fill:#ffe3ca"></path>
  <path d="M286.2 264v9l-10.6-9.4z" style="fill:#ffe3ca"></path>
  <path d="m286.2 273-4.7-5.8-15.9-15.8-5.9 2.7zM291.9 266.3l7.3 2-12.3-19.8z" style="fill:#0e538c"></path>
  <path d="m281.5 267.2-6.6 10.6-15.4-24.1 6.6-3.4zM315.2 310s2.4-15.8-.1-25.3c0 0-1.4 7.7-4.8 19.8l4.9 5.5zM241.7 307.9s6.5-21.7 6.9-22.8c0 0-.4 19.9-3 29.8 0-.1-2.4-4.3-3.9-7z" style="fill:#0e538c"></path>
  <path d="M279.7 181.9s17.4-.5 20.6 20.2c3.2 20.6-4.2 38.8-7.1 41.7-2.9 2.9-20.3.7-24.4-10-4.1-10.7-10.1-18.5-9.2-27.8.9-9.3-1.3-24.5 20.1-24.1z" style="fill:#ffe3ca"></path>
  <path d="M301.1 209.9s4.7-25.7-18.5-30.4c-23.1-4.6-31.3 11.2-33.5 20.6-2.2 9.4.4 36 .4 36s15.4 13.5 24.6 17c0 0-7.7-28.3-4.8-48.5 0 0 18.8 3 31.3-.1.1 0 .4 4.3.5 5.4z" style="fill:#ffbe55"></path>
  <path d="M287.3 244.9s-6.1 0-14.3-5.4c0 0 5.8 7.3 13.9 9.9 0 0 .4-3.6.4-4.5z" style="fill:#fcd2b1"></path>
  <path d="M189.2 382.9h68.2v50.5h-68.2z" style="fill:#0b4870" transform="rotate(-9.284 223.144 408.092)"></path>
  <path d="M214.5 437.7s-1.1-1.7-1.2-2.7c0 0 0-1.8-.1-3.1 0-.4-.1-.8-.1-1-.2-.9-.9-2.9-.8-5.3.1-2.4 3.4-12.5 3.4-12.5l6 .2 5.6-.6s6.8 12.9 6.9 15.2v.6c-.1 1.9-.9 3.3-1.1 4.3-.1.4-.9 3.9-1.9 4.4-1.4.7-2.6.6-3.5.1 0 0-2.7 1.2-4.7.7 0 0-2.5 1.2-4.7-.1.1 0-2.6 1-3.8-.2z" style="fill:#ffe3ca"></path>
  <path d="M250.1 257s-11.9-3.4-18.8 9.7c-6.8 13.2-6.8 18.8-7.7 25.2-.9 6.1-9.2 42.1-9.6 43.8-.4 1.7-3.1 24.2-3.3 32.4-.1 6.2 1.3 47.1 1.1 48.7-.3 1.6 18.9-2.8 18.9-2.8s-2.1-37.7-1.7-41.6c.4-3.9 1.2-23.6 3.2-29.4 2.3-6.8 11.2-41 12.8-44.4 1.4-3.3 15.2-37.3 5.1-41.6z" style="fill:#2a94f4"></path>
  <path d="m447.3 254.3 4.5 22.8 4.5 22.8s-25.9-8.1-55.3-2.3l-2-10.1-2-10.1c29.5-5.8 50.3-23.1 50.3-23.1z" style="fill:#ffbe55"></path>
  <defs>
    <path id="SVGID_1_" d="m405.2 322.5 2.6-1.2-11.8-24.9-6.6 3.1 10 21.1c1.1 2.4 3.4 3 5.8 1.9z"></path>
  </defs>
  <use xlink:href="#SVGID_1_" style="overflow:visible;fill:#2a94f4"></use>
  <clipPath id="SVGID_2_">
    <use xlink:href="#SVGID_1_" style="overflow:visible"></use>
  </clipPath>
  <path d="M389.4 296.4v27.3-27.3zM389.4 296.4h.3v27.3h-.3zM389.7 296.4h.3v27.3h-.3zM390 296.4h.3v27.3h-.3zM390.3 296.4h.3v27.3h-.3zM390.6 296.4h.3v27.3h-.3z" style="clip-path:url(#SVGID_2_);fill:#2a94f4"></path>
  <path d="M390.9 296.4h.3v27.3h-.3z" style="clip-path:url(#SVGID_2_);fill:#2a94f4"></path>
  <path d="M391.1 296.4h.3v27.3h-.3z" style="clip-path:url(#SVGID_2_);fill:#2a94f4"></path>
  <path d="M391.4 296.4h.3v27.3h-.3zM391.7 296.4h.3v27.3h-.3zM392 296.4h.3v27.3h-.3zM392.3 296.4h.3v27.3h-.3z" style="clip-path:url(#SVGID_2_);fill:#2a94f4"></path>
  <path d="M392.5 296.4h.3v27.3h-.3zM392.8 296.4h.3v27.3h-.3zM393.1 296.4h.3v27.3h-.3z" style="clip-path:url(#SVGID_2_);fill:#2a94f4"></path>
  <path d="M393.4 296.4h.3v27.3h-.3zM393.7 296.4h.3v27.3h-.3zM394 296.4h.3v27.3h-.3z" style="clip-path:url(#SVGID_2_);fill:#2a94f4"></path>
  <path d="M394.2 296.4h.3v27.3h-.3zM394.5 296.4h.3v27.3h-.3zM394.8 296.4h.3v27.3h-.3zM395.1 296.4h.3v27.3h-.3z" style="clip-path:url(#SVGID_2_);fill:#2a94f4"></path>
  <path d="M395.4 296.4h.3v27.3h-.3z" style="clip-path:url(#SVGID_2_);fill:#2a94f4"></path>
  <path d="M395.6 296.4h.3v27.3h-.3z" style="clip-path:url(#SVGID_2_);fill:#2a94f4"></path>
  <path d="M395.9 296.4h.3v27.3h-.3zM396.2 296.4h.3v27.3h-.3zM396.5 296.4h.3v27.3h-.3zM396.8 296.4h.3v27.3h-.3zM397.1 296.4h.3v27.3h-.3z" style="clip-path:url(#SVGID_2_);fill:#2a94f4"></path>
  <path d="M397.3 296.4h.3v27.3h-.3zM397.6 296.4h.3v27.3h-.3z" style="clip-path:url(#SVGID_2_);fill:#2a94f4"></path>
  <path d="M397.9 296.4h.3v27.3h-.3zM398.2 296.4h.3v27.3h-.3zM398.5 296.4h.3v27.3h-.3zM398.8 296.4h.3v27.3h-.3z" style="clip-path:url(#SVGID_2_);fill:#2a94f4"></path>
  <path d="M399 296.4h.3v27.3h-.3zM399.3 296.4h.3v27.3h-.3zM399.6 296.4h.3v27.3h-.3z" style="clip-path:url(#SVGID_2_);fill:#2a94f4"></path>
  <path d="M399.9 296.4h.3v27.3h-.3zM400.2 296.4h.3v27.3h-.3z" style="clip-path:url(#SVGID_2_);fill:#2a94f4"></path>
  <path d="M400.4 296.4h.3v27.3h-.3zM400.7 296.4h.3v27.3h-.3zM401 296.4h.3v27.3h-.3zM401.3 296.4h.3v27.3h-.3zM401.6 296.4h.3v27.3h-.3z" style="clip-path:url(#SVGID_2_);fill:#2a94f4"></path>
  <path d="M401.9 296.4h.3v27.3h-.3z" style="clip-path:url(#SVGID_2_);fill:#2a94f4"></path>
  <path d="M402.1 296.4h.3v27.3h-.3z" style="clip-path:url(#SVGID_2_);fill:#2a94f4"></path>
  <path d="M402.4 296.4h.3v27.3h-.3zM402.7 296.4h.3v27.3h-.3zM403 296.4h.3v27.3h-.3zM403.3 296.4h.3v27.3h-.3z" style="clip-path:url(#SVGID_2_);fill:#2a94f4"></path>
  <path d="M403.5 296.4h.3v27.3h-.3zM403.8 296.4h.3v27.3h-.3zM404.1 296.4h.3v27.3h-.3z" style="clip-path:url(#SVGID_2_);fill:#2a94f4"></path>
  <path d="M404.4 296.4h.3v27.3h-.3zM404.7 296.4h.3v27.3h-.3zM405 296.4h.3v27.3h-.3z" style="clip-path:url(#SVGID_2_);fill:#2a94f4"></path>
  <path d="M405.2 296.4h.3v27.3h-.3zM405.5 296.4h.3v27.3h-.3zM405.8 296.4h.3v27.3h-.3zM406.1 296.4h.3v27.3h-.3z" style="clip-path:url(#SVGID_2_);fill:#2a94f4"></path>
  <path d="M406.4 296.4h.3v27.3h-.3z" style="clip-path:url(#SVGID_2_);fill:#2a94f4"></path>
  <path d="M406.6 296.4h.3v27.3h-.3z" style="clip-path:url(#SVGID_2_);fill:#2a94f4"></path>
  <path d="M406.9 296.4h.3v27.3h-.3zM407.2 296.4h.3v27.3h-.3zM407.5 296.4h.3v27.3h-.3zM407.8 323.6v-27.3 27.3z" style="clip-path:url(#SVGID_2_);fill:#2a94f4"></path>
  <defs>
    <path id="SVGID_3_" d="m380.8 301.8 25.9-4.8-4.2-21.3-25.7 5.9z"></path>
  </defs>
  <use xlink:href="#SVGID_3_" style="overflow:visible;fill:#2a94f4"></use>
  <clipPath id="SVGID_4_">
    <use xlink:href="#SVGID_3_" style="overflow:visible"></use>
  </clipPath>
  <path d="M376.8 275.7v26.1-26.1zM376.8 275.7h.5v26.1h-.5z" style="fill:#2a94f4;clip-path:url(#SVGID_4_)"></path>
  <path d="M377.2 275.7h.5v26.1h-.5zM377.7 275.7h.5v26.1h-.5z" style="fill:#2a94f4;clip-path:url(#SVGID_4_)"></path>
  <path d="M378.1 275.7h.5v26.1h-.5zM378.6 275.7h.5v26.1h-.5zM379.1 275.7h.5v26.1h-.5z" style="fill:#2a94f4;clip-path:url(#SVGID_4_)"></path>
  <path d="M379.5 275.7h.5v26.1h-.5zM380 275.7h.5v26.1h-.5z" style="fill:#2a94f4;clip-path:url(#SVGID_4_)"></path>
  <path d="M380.4 275.7h.5v26.1h-.5zM380.9 275.7h.5v26.1h-.5zM381.4 275.7h.5v26.1h-.5z" style="fill:#2a94f4;clip-path:url(#SVGID_4_)"></path>
  <path d="M381.8 275.7h.5v26.1h-.5zM382.3 275.7h.5v26.1h-.5z" style="fill:#2a94f4;clip-path:url(#SVGID_4_)"></path>
  <path d="M382.7 275.7h.5v26.1h-.5zM383.2 275.7h.5v26.1h-.5zM383.7 275.7h.5v26.1h-.5z" style="fill:#2a94f4;clip-path:url(#SVGID_4_)"></path>
  <path d="M384.1 275.7h.5v26.1h-.5zM384.6 275.7h.5v26.1h-.5z" style="fill:#2a94f4;clip-path:url(#SVGID_4_)"></path>
  <path d="M385 275.7h.5v26.1h-.5zM385.5 275.7h.5v26.1h-.5zM386 275.7h.5v26.1h-.5z" style="fill:#2a94f4;clip-path:url(#SVGID_4_)"></path>
  <path d="M386.4 275.7h.5v26.1h-.5zM386.9 275.7h.5v26.1h-.5z" style="fill:#2a94f4;clip-path:url(#SVGID_4_)"></path>
  <path d="M387.3 275.7h.5v26.1h-.5zM387.8 275.7h.5v26.1h-.5zM388.3 275.7h.5v26.1h-.5z" style="fill:#2a94f4;clip-path:url(#SVGID_4_)"></path>
  <path d="M388.7 275.7h.5v26.1h-.5zM389.2 275.7h.5v26.1h-.5z" style="fill:#2a94f4;clip-path:url(#SVGID_4_)"></path>
  <path d="M389.6 275.7h.5v26.1h-.5zM390.1 275.7h.5v26.1h-.5zM390.6 275.7h.5v26.1h-.5z" style="fill:#2a94f4;clip-path:url(#SVGID_4_)"></path>
  <path d="M391 275.7h.5v26.1h-.5zM391.5 275.7h.5v26.1h-.5zM392 275.7h.5v26.1h-.5z" style="fill:#2a94f4;clip-path:url(#SVGID_4_)"></path>
  <path d="M392.4 275.7h.5v26.1h-.5zM392.9 275.7h.5v26.1h-.5z" style="fill:#2a94f4;clip-path:url(#SVGID_4_)"></path>
  <path d="M393.3 275.7h.5v26.1h-.5zM393.8 275.7h.5v26.1h-.5zM394.3 275.7h.5v26.1h-.5z" style="fill:#2a94f4;clip-path:url(#SVGID_4_)"></path>
  <path d="M394.7 275.7h.5v26.1h-.5zM395.2 275.7h.5v26.1h-.5z" style="fill:#2a94f4;clip-path:url(#SVGID_4_)"></path>
  <path d="M395.6 275.7h.5v26.1h-.5zM396.1 275.7h.5v26.1h-.5zM396.6 275.7h.5v26.1h-.5z" style="fill:#2a94f4;clip-path:url(#SVGID_4_)"></path>
  <path d="M397 275.7h.5v26.1h-.5zM397.5 275.7h.5v26.1h-.5z" style="fill:#2a94f4;clip-path:url(#SVGID_4_)"></path>
  <path d="M397.9 275.7h.5v26.1h-.5zM398.4 275.7h.5v26.1h-.5zM398.9 275.7h.5v26.1h-.5z" style="fill:#2a94f4;clip-path:url(#SVGID_4_)"></path>
  <path d="M399.3 275.7h.5v26.1h-.5zM399.8 275.7h.5v26.1h-.5z" style="fill:#2a94f4;clip-path:url(#SVGID_4_)"></path>
  <path d="M400.2 275.7h.5v26.1h-.5zM400.7 275.7h.5v26.1h-.5zM401.2 275.7h.5v26.1h-.5z" style="fill:#2a94f4;clip-path:url(#SVGID_4_)"></path>
  <path d="M401.6 275.7h.5v26.1h-.5zM402.1 275.7h.5v26.1h-.5z" style="fill:#2a94f4;clip-path:url(#SVGID_4_)"></path>
  <path d="M402.5 275.7h.5v26.1h-.5zM403 275.7h.5v26.1h-.5zM403.5 275.7h.5v26.1h-.5z" style="fill:#2a94f4;clip-path:url(#SVGID_4_)"></path>
  <path d="M403.9 275.7h.5v26.1h-.5zM404.4 275.7h.5v26.1h-.5z" style="fill:#2a94f4;clip-path:url(#SVGID_4_)"></path>
  <path d="M404.8 275.7h.5v26.1h-.5zM405.3 275.7h.5v26.1h-.5zM405.8 275.7h.5v26.1h-.5z" style="fill:#2a94f4;clip-path:url(#SVGID_4_)"></path>
  <path d="M406.2 275.7h.5v26.1h-.5zM406.7 301.8v-26.1 26.1z" style="fill:#2a94f4;clip-path:url(#SVGID_4_)"></path>
  <path d="M407 306.3s-7.7-.7-8 .5c-.3 1.2.4 1.8.4 1.8l-3.3 1.1s-1.8 2 .9 3.3c0 0-1.8 1.7.9 2.7 0 0-.7 1.7.5 2.3 1.2.7 6.2.9 6.2.9s1.1-.4.8-2.4c0 0 1.6-1 1.2-2.8 0 0 1.1-1 .7-2.9 0 0 2.4-2.4.6-4.6-.1.2-.6.1-.9.1z" style="fill:#ffe3ca"></path>
</svg>
