<svg xmlns="http://www.w3.org/2000/svg" viewBox="0 0 64 64"><g id="_14-Map" data-name="14-Map"><path d="M63,9V55a4.941,4.941,0,0,0-1-3,5.01,5.01,0,0,0-4-2H55V4h3A5,5,0,0,1,63,9Z" style="fill:#edf4fa"/><path d="M62,52a4.941,4.941,0,0,1,1,3,5,5,0,0,1-5,5H1V14H8.32a11.252,11.252,0,0,0,2.44,4H5V56H58S62,56,62,52Z" style="fill:#c1cfe8"/><path d="M58,50a5.01,5.01,0,0,1,4,2c0,4-4,4-4,4H5V18h5.76c1.41,1.68,2.84,3.26,2.84,5.64a2.4,2.4,0,0,0,4.8,0c0-2.38,1.43-3.96,2.84-5.64H55V50Zm-7-4V42l-8-5-8,5v4l2-1.25V52H49V44.75ZM31,41V35H25v6ZM17,48V42H11v6Z" style="fill:#4989f4"/><path d="M55,14v4H21.24a11.252,11.252,0,0,0,2.44-4Z" style="fill:#c1cfe8"/><polygon points="49 44.75 43 41 37 44.75 35 46 35 42 43 37 51 42 51 46 49 44.75" style="fill:#edf4fa"/><polygon points="49 44.75 49 52 45 52 45 46 41 46 41 52 37 52 37 44.75 43 41 49 44.75" style="fill:#c1cfe8"/><rect x="41" y="46" width="4" height="6" style="fill:#edf4fa"/><rect x="25" y="35" width="6" height="6" style="fill:#ffdd52"/><path d="M21.24,18c-1.41,1.68-2.84,3.26-2.84,5.64a2.4,2.4,0,0,1-4.8,0c0-2.38-1.43-3.96-2.84-5.64a11.252,11.252,0,0,1-2.44-4A6.867,6.867,0,0,1,8,11.86a8,8,0,0,1,16,0A6.867,6.867,0,0,1,23.68,14,11.252,11.252,0,0,1,21.24,18ZM19,12a3,3,0,1,0-3,3A3,3,0,0,0,19,12Z" style="fill:#e63b47"/><circle cx="16" cy="12" r="3" style="fill:#96272e"/><rect x="11" y="42" width="6" height="6" style="fill:#ffdd52"/><path d="M60,47a2,2,0,0,1-2-2V4H55V50h3a5.01,5.01,0,0,1,4,2,4.941,4.941,0,0,1,1,3V50A3,3,0,0,0,60,47Z" style="fill:#d6e0eb"/><path d="M16,8a4,4,0,1,0,4,4A4,4,0,0,0,16,8Zm0,7a3,3,0,1,1,3-3A3,3,0,0,1,16,15Z" style="fill:#b32e37"/><path d="M7.257,18h3.5a11.252,11.252,0,0,1-2.44-4H6.01a6.844,6.844,0,0,0,.31,2A7.96,7.96,0,0,0,7.257,18Z" style="fill:#a8b7d4"/><path d="M11.6,25.64a2.4,2.4,0,0,0,4.767.324A2.467,2.467,0,0,1,16,26a2.38,2.38,0,0,1-2.4-2.36c0-2.38-1.43-3.96-2.84-5.64h-3.5a18.548,18.548,0,0,0,1.5,2C10.17,21.68,11.6,23.26,11.6,25.64Z" style="fill:#335fab"/><rect x="32" y="51.5" width="2" height="1" style="fill:#edf4fa"/><rect x="21" y="23.5" width="2" height="1" style="fill:#edf4fa"/><path d="M62,52a3.744,3.744,0,0,1-1.115,2.879,6.809,6.809,0,0,1,1.592,2.306A4.927,4.927,0,0,0,62,52Z" style="fill:#8394b2"/><path d="M51,42V53h5.2a6.774,6.774,0,0,1,4.685,1.879A3.744,3.744,0,0,0,62,52a5.01,5.01,0,0,0-4-2H55V18H51Z" style="fill:#335fab"/><rect x="51" y="14" width="4" height="4" style="fill:#8394b2"/><polygon points="43 41.125 37 44.875 37 46.875 43 43.125 49 46.875 49 44.875 43 41.125" style="fill:#a8b7d4"/><polygon points="35 44.125 35 46.125 37 44.875 43 41.125 49 44.875 51 46.125 51 44.125 43 39.125 35 44.125" style="fill:#d6e0eb"/><path d="M30,52.5H23A2.5,2.5,0,0,1,20.5,50V40A1.5,1.5,0,0,0,19,38.5H11A2.5,2.5,0,0,1,8.5,36V33A2.5,2.5,0,0,1,11,30.5H49A1.5,1.5,0,0,0,50.5,29V26A1.5,1.5,0,0,0,49,24.5H25v-1H49A2.5,2.5,0,0,1,51.5,26v3A2.5,2.5,0,0,1,49,31.5H11A1.5,1.5,0,0,0,9.5,33v3A1.5,1.5,0,0,0,11,37.5h8A2.5,2.5,0,0,1,21.5,40V50A1.5,1.5,0,0,0,23,51.5h7Z" style="fill:#edf4fa"/></g></svg>